<svg xmlns="http://www.w3.org/2000/svg" xmlns:xlink="http://www.w3.org/1999/xlink" width="200" zoomAndPan="magnify" viewBox="0 0 150 149.999998" height="200" preserveAspectRatio="xMidYMid meet" version="1.0"><defs><clipPath id="id1"><path d="M 7.648438 32.699219 L 140.191406 32.699219 L 140.191406 134.0625 L 7.648438 134.0625 Z M 7.648438 32.699219 " clip-rule="nonzero"/></clipPath></defs><path fill="rgb(99.21875%, 88.62915%, 71.759033%)" d="M 125.292969 71.859375 L 112.855469 82.300781 L 95.59375 96.789062 C 95.035156 97.359375 94.445312 97.90625 93.820312 98.433594 C 93.199219 98.953125 92.558594 99.4375 91.902344 99.890625 L 81.449219 108.171875 C 78.589844 110.613281 74.203125 110.613281 71.5625 108.175781 L 60.21875 98.433594 L 48.523438 88.667969 L 30.320312 73.472656 C 17.65625 62.90625 13.246094 43.5625 22.222656 30.277344 C 32.082031 15.683594 52.695312 15.683594 65.875 30.277344 L 75.875 41.355469 C 76.351562 41.878906 77.125 41.875 77.59375 41.351562 L 88.921875 28.714844 C 101.386719 14.804688 120.90625 12.953125 131.703125 25.695312 C 143.039062 39.066406 138.816406 60.507812 125.292969 71.859375 " fill-opacity="1" fill-rule="nonzero"/><path fill="rgb(99.21875%, 88.62915%, 71.759033%)" d="M 85.230469 94.765625 L 86.253906 92.800781 C 86.253906 92.800781 83.441406 95.699219 80.085938 103.179688 C 79.050781 104.984375 78.074219 106.785156 77.253906 108.457031 C 74.8125 103.0625 70.859375 98.59375 69.191406 96.84375 C 69.191406 96.84375 68.667969 94.136719 68.667969 94.136719 C 68.605469 93.816406 72.070312 90.460938 72.464844 89.890625 C 73.597656 88.261719 74.523438 86.484375 75.1875 84.613281 C 76.605469 80.621094 75.613281 76.941406 75.9375 72.929688 C 76.554688 73.445312 77.050781 74.144531 77.570312 74.773438 C 77.769531 74.285156 77.972656 73.792969 78.171875 73.304688 C 77.921875 73.910156 79.023438 77.820312 79.175781 78.757812 C 79.390625 80.097656 79.648438 81.441406 79.96875 82.761719 C 79.96875 82.761719 81.652344 88.160156 86.65625 92.570312 C 86.226562 93.222656 85.746094 93.960938 85.230469 94.765625 Z M 120.546875 92.839844 L 120.523438 92.792969 C 127.835938 86.988281 128.71875 78.027344 128.699219 73.867188 C 128.726562 73.890625 128.753906 73.90625 128.777344 73.929688 L 128.699219 73.847656 C 128.691406 72.453125 128.585938 71.59375 128.585938 71.59375 C 129.136719 67.8125 140.21875 62.304688 138.878906 45.972656 C 138.75 44.390625 136.476562 43.890625 134.914062 44.191406 C 123.710938 46.335938 116.578125 54.425781 116.578125 54.425781 L 112.3125 53.09375 C 110.5 52.148438 108.800781 51.453125 107.21875 50.953125 L 106.675781 50.375 C 106.617188 50.496094 106.566406 50.613281 106.511719 50.738281 C 104.898438 50.273438 103.417969 50.015625 102.078125 49.898438 L 100.261719 49.332031 C 100.269531 49.402344 100.269531 49.574219 100.257812 49.816406 C 97.75 49.824219 95.863281 50.3125 94.691406 50.746094 C 94.554688 50.714844 94.425781 50.679688 94.289062 50.644531 C 92.578125 47.738281 83.03125 35.183594 76.421875 34.128906 C 69.789062 33.070312 72.726562 45.914062 72.726562 45.914062 L 74.476562 46.300781 C 73.015625 46.910156 70.878906 47.800781 65.980469 46.71875 C 59.90625 45.378906 58.789062 51.273438 58.789062 51.273438 L 58.792969 51.277344 C 54.238281 48.914062 50.265625 48.402344 48.785156 49.273438 C 45.429688 51.246094 39.308594 53.808594 35.160156 53.808594 C 31.015625 53.808594 30.027344 58.546875 30.027344 58.546875 L 30.457031 59.945312 C 29.515625 59.28125 28.382812 58.980469 27.007812 59.164062 C 23.902344 59.582031 21.757812 62.449219 20.316406 64.976562 C 19.5 66.398438 18.832031 67.902344 18.246094 69.429688 C 17.78125 70.644531 17.742188 72.082031 17.082031 73.210938 C 16.980469 73.386719 16.859375 73.550781 16.730469 73.707031 C 16.039062 74.527344 15.015625 75.089844 14.167969 75.699219 C 11.785156 77.410156 9.941406 79.921875 9.214844 82.765625 C 6.738281 92.421875 17.375 98.492188 24.464844 102.007812 C 25.246094 102.394531 26.128906 102.910156 27.039062 103.316406 L 26.949219 104.035156 C 26.242188 105.714844 18.164062 126.050781 36.914062 132.800781 C 36.914062 132.800781 44.222656 134.253906 44.207031 123.53125 L 44.203125 123.527344 C 45.136719 123.855469 46.09375 124.113281 47.070312 124.277344 C 49.738281 124.722656 52.488281 124.359375 55.042969 123.507812 C 56.519531 123.011719 58.21875 122.402344 59.589844 121.457031 L 59.589844 121.460938 C 59.589844 121.460938 60.851562 127.238281 60.59375 128.257812 C 60.355469 129.210938 70.097656 136.722656 76.804688 125.160156 L 76.832031 125.167969 L 76.792969 125.179688 C 76.125 126.476562 79.539062 129.121094 80.398438 129.828125 C 82.367188 131.441406 84.664062 132.425781 87.265625 132.171875 C 93.007812 131.609375 95.667969 126.507812 93.679688 121.644531 L 94.222656 121.03125 C 98.378906 122.367188 104.699219 123.269531 112.675781 120.964844 C 113.726562 124.789062 116.21875 129.414062 120.53125 130.242188 C 121.777344 130.480469 123.054688 130.265625 124.300781 130.035156 C 125.363281 129.835938 126.449219 129.617188 127.394531 129.082031 C 134.839844 124.867188 130.597656 112.125 128.117188 106.265625 C 126.125 101.546875 123.554688 96.992188 120.546875 92.839844 " fill-opacity="1" fill-rule="nonzero"/><path fill="rgb(65.489197%, 48.629761%, 32.159424%)" d="M 77.253906 108.457031 C 77.253906 108.457031 77.734375 113.8125 79.472656 116.46875 C 81.210938 119.132812 76.792969 125.179688 76.792969 125.179688 L 77.660156 127.332031 C 77.660156 127.332031 79.632812 130.753906 84.902344 132.050781 C 90.167969 133.34375 94.222656 125.71875 94.222656 125.71875 L 94.222656 121.03125 C 94.222656 121.03125 101.136719 123.542969 105.660156 122.273438 C 110.183594 121.003906 112.671875 122.109375 112.671875 122.109375 C 112.671875 122.109375 113.128906 125.355469 118.152344 129.3125 C 123.171875 133.269531 130.507812 128.003906 132.714844 121.714844 C 134.925781 115.429688 122.125 93.019531 122.125 93.019531 C 122.125 93.019531 118.8125 92.570312 115.46875 95.414062 C 112.125 98.253906 102.28125 96.976562 96.652344 96.976562 C 91.023438 96.976562 86.253906 92.800781 86.253906 92.800781 Z M 47.070312 124.277344 C 54.167969 125.761719 61.164062 119.273438 61.164062 119.273438 L 61.964844 115.027344 L 59.554688 108.457031 C 59.554688 108.457031 49.539062 98.847656 44.207031 104.871094 C 38.871094 110.898438 41.410156 121.195312 41.410156 121.195312 C 41.410156 121.195312 39.96875 122.789062 47.070312 124.277344 Z M 118.421875 61.832031 C 118.421875 61.832031 120.511719 59.816406 120.910156 58.398438 C 121.308594 56.976562 127.894531 52.6875 130.847656 52.132812 C 133.796875 51.574219 131.355469 56.375 131.355469 56.375 L 126.933594 63.421875 L 123.957031 65.617188 L 125.558594 68.996094 C 125.558594 68.996094 125.238281 72.4375 128.988281 70.496094 C 132.742188 68.554688 137.789062 55.023438 137.789062 55.023438 L 138.980469 49.332031 L 137.789062 44.53125 C 126.648438 43.503906 115.46875 55.75 115.46875 55.75 Z M 106.511719 50.738281 C 106.511719 50.738281 101.402344 61.609375 103.558594 67.300781 C 105.714844 72.992188 105.359375 70.808594 110.441406 71.585938 C 115.519531 72.363281 120.910156 71.484375 120.910156 71.484375 L 127.488281 72.929688 L 128.988281 70.496094 C 128.988281 70.496094 126.980469 64.191406 124.640625 62.914062 C 122.292969 61.636719 115.851562 52.621094 106.511719 50.738281 Z M 79.472656 48.261719 C 79.472656 48.261719 78.566406 43.332031 79.472656 41.433594 C 80.382812 39.539062 86.65625 50.558594 86.65625 50.558594 L 85.859375 52.132812 L 84.902344 55.058594 L 86.65625 55.75 L 94.222656 55.058594 L 94.914062 49.394531 C 94.914062 49.394531 84.777344 35.054688 77.101562 34.277344 C 69.421875 33.5 72.726562 45.914062 72.726562 45.914062 C 74.925781 44.058594 79.472656 48.261719 79.472656 48.261719 Z M 81.0625 53.230469 C 80.089844 52.96875 78.082031 70.007812 78.082031 70.007812 L 85.859375 68.996094 L 92.222656 70.007812 L 96.652344 66.113281 C 96.652344 66.113281 96.359375 62.457031 96.652344 61.617188 C 96.949219 60.777344 98.96875 58.511719 98.96875 58.511719 L 98.410156 54.917969 L 98.96875 51.035156 L 100.261719 49.332031 L 98.242188 49.714844 L 82.015625 54.714844 Z M 27.039062 103.316406 C 27.039062 103.316406 30.667969 104.394531 32.15625 102.710938 C 33.640625 101.023438 37.25 72.699219 33.882812 64.921875 C 30.515625 57.144531 26.457031 57.363281 23.648438 60.730469 C 20.839844 64.101562 17.082031 73.210938 17.082031 73.210938 C 17.082031 73.210938 10.375 79.402344 9.792969 81.082031 C 9.214844 82.765625 7.808594 88.675781 12.703125 94.128906 C 17.59375 99.582031 27.039062 103.316406 27.039062 103.316406 Z M 62.25 46.882812 C 64.492188 46.902344 69.445312 47.210938 70.53125 47.769531 C 71.617188 48.328125 73.867188 46.167969 76.542969 46.097656 C 79.21875 46.023438 81.082031 54.503906 80.191406 60.3125 C 79.296875 66.117188 77.101562 74.84375 77.101562 74.84375 C 77.101562 74.84375 75.9375 72.929688 73.921875 67.753906 C 71.902344 62.582031 63.867188 53.078125 58.789062 51.273438 C 58.789062 51.273438 60.007812 46.863281 62.25 46.882812 " fill-opacity="1" fill-rule="nonzero"/><g clip-path="url(#id1)"><path fill="rgb(34.118652%, 19.219971%, 1.959229%)" d="M 43.433594 70.445312 C 43.089844 68.96875 43.660156 67.578125 44.707031 67.335938 C 45.75 67.09375 46.871094 68.09375 47.214844 69.570312 C 47.558594 71.042969 46.988281 72.4375 45.941406 72.675781 C 44.898438 72.917969 43.777344 71.917969 43.433594 70.445312 Z M 54.554688 67.695312 C 54.605469 66.179688 55.511719 64.984375 56.582031 65.015625 C 57.652344 65.050781 58.484375 66.304688 58.433594 67.816406 C 58.386719 69.328125 57.480469 70.527344 56.40625 70.492188 C 55.335938 70.460938 54.507812 69.207031 54.554688 67.695312 Z M 109.539062 66.058594 C 109.199219 67.53125 108.074219 68.53125 107.03125 68.289062 C 105.988281 68.046875 105.417969 66.65625 105.757812 65.179688 C 106.101562 63.707031 107.226562 62.707031 108.269531 62.949219 C 109.3125 63.191406 109.882812 64.582031 109.539062 66.058594 Z M 90.355469 62.894531 C 90.765625 61.4375 91.933594 60.492188 92.964844 60.785156 C 93.996094 61.074219 94.5 62.492188 94.089844 63.949219 C 93.675781 65.40625 92.507812 66.351562 91.476562 66.058594 C 90.445312 65.769531 89.941406 64.351562 90.355469 62.894531 Z M 126.800781 128.039062 C 126.050781 128.464844 125.125 128.660156 124.082031 128.851562 C 122.855469 129.082031 121.765625 129.253906 120.761719 129.058594 C 116.964844 128.332031 115 124.121094 114.183594 121.757812 C 114.855469 121.542969 115.535156 121.308594 116.230469 121.046875 L 115.378906 118.796875 C 99.53125 124.789062 89.472656 117.5 89.371094 117.425781 L 87.925781 119.347656 C 88.089844 119.46875 89.644531 120.605469 92.378906 121.667969 C 93.355469 123.703125 93.40625 125.84375 92.492188 127.636719 C 91.519531 129.546875 89.621094 130.734375 87.148438 130.976562 C 85.113281 131.175781 83.089844 130.476562 81.160156 128.898438 L 80.96875 128.738281 C 78.492188 126.738281 78.019531 125.902344 77.929688 125.617188 C 78.425781 124.75 78.902344 123.792969 79.359375 122.71875 C 81.234375 118.300781 80.574219 113.609375 78.902344 109.355469 C 82.234375 100.132812 85.550781 95.542969 86.699219 94.128906 C 90.292969 97.035156 95.34375 99.378906 102.289062 99.378906 C 102.441406 99.378906 102.59375 99.378906 102.746094 99.375 C 109.929688 99.269531 115.78125 97.632812 120.234375 94.511719 C 122.902344 98.339844 125.191406 102.4375 127.011719 106.734375 C 129.183594 111.875 133.515625 124.234375 126.800781 128.039062 Z M 77.859375 125.734375 C 77.863281 125.726562 77.867188 125.726562 77.867188 125.71875 C 77.867188 125.726562 77.867188 125.730469 77.863281 125.734375 Z M 68.210938 130.320312 C 64.984375 130.566406 62.429688 128.707031 61.820312 128.050781 C 61.859375 126.703125 61.347656 123.964844 60.925781 121.964844 C 61.398438 121.574219 61.824219 121.136719 62.1875 120.636719 C 63.554688 118.738281 63.902344 116.339844 63.242188 113.300781 C 62.570312 110.195312 60.003906 106.925781 56.542969 104.769531 C 53.3125 102.757812 49.777344 102.023438 46.859375 102.742188 C 44.597656 103.308594 42.640625 105.207031 41.203125 108.25 C 39.058594 112.785156 38.355469 119.546875 39.730469 122.433594 C 40.046875 123.097656 40.785156 123.441406 41.71875 123.820312 C 41.828125 123.863281 41.917969 123.898438 41.984375 123.929688 C 42.3125 124.082031 42.644531 124.222656 42.980469 124.355469 C 42.863281 127.328125 42.089844 129.496094 40.710938 130.644531 C 39.28125 131.839844 37.589844 131.683594 37.21875 131.628906 C 32.300781 129.835938 28.929688 126.890625 27.203125 122.875 C 24.117188 115.691406 27.074219 107.03125 27.902344 104.890625 C 28.398438 105.023438 28.902344 105.113281 29.417969 105.113281 C 30.058594 105.113281 30.707031 104.988281 31.347656 104.679688 C 35.332031 102.78125 36.445312 83.359375 36.257812 77.453125 C 36.023438 70.226562 35.289062 62.417969 31.597656 59.296875 C 31.316406 59.058594 31.015625 58.867188 30.710938 58.691406 L 31.203125 58.792969 C 31.238281 58.640625 32.058594 55.011719 35.160156 55.011719 C 39.730469 55.011719 46.175781 52.199219 49.394531 50.308594 C 49.972656 49.96875 51.964844 49.863281 55.089844 50.96875 C 58.175781 52.054688 68.65625 56.6875 73.921875 70.609375 C 76.777344 78.164062 74.796875 86.527344 68.753906 92.429688 C 61.976562 99.050781 52 100.835938 42.71875 97.089844 L 41.820312 99.316406 C 45.328125 100.734375 48.933594 101.429688 52.457031 101.429688 C 57.84375 101.429688 63.023438 99.78125 67.394531 96.652344 C 69.160156 98.433594 81.535156 111.433594 77.144531 121.78125 C 74.890625 127.089844 71.800781 130.042969 68.210938 130.320312 Z M 54.664062 122.367188 C 52.105469 123.21875 49.546875 123.472656 47.265625 123.09375 C 45.808594 122.847656 44.375 122.398438 43.011719 121.753906 C 42.921875 121.714844 42.785156 121.65625 42.625 121.589844 C 42.453125 121.523438 42.039062 121.351562 41.828125 121.234375 C 40.957031 119.0625 41.429688 113.394531 43.378906 109.273438 C 44.15625 107.625 45.496094 105.5625 47.4375 105.078125 C 49.730469 104.507812 52.585938 105.140625 55.273438 106.8125 C 58.199219 108.632812 60.355469 111.3125 60.894531 113.808594 C 61.40625 116.175781 61.195312 117.898438 60.234375 119.230469 C 59.121094 120.777344 56.871094 121.628906 54.664062 122.367188 Z M 10.378906 83.0625 C 11.011719 80.597656 12.648438 78.269531 14.871094 76.671875 C 15.074219 76.527344 15.292969 76.382812 15.511719 76.234375 C 16.222656 75.757812 17.027344 75.222656 17.648438 74.476562 L 17.652344 74.476562 C 17.828125 74.269531 17.984375 74.050781 18.121094 73.816406 C 18.605469 72.984375 18.8125 72.066406 18.992188 71.253906 C 19.101562 70.75 19.210938 70.273438 19.367188 69.859375 C 19.996094 68.222656 20.644531 66.820312 21.359375 65.574219 C 23.207031 62.339844 25.105469 60.632812 27.167969 60.355469 C 27.378906 60.328125 27.585938 60.3125 27.785156 60.3125 C 28.648438 60.3125 29.394531 60.582031 30.042969 61.132812 C 33.417969 63.984375 33.722656 73.472656 33.851562 77.527344 C 34.15625 86.894531 32.097656 101.371094 30.3125 102.511719 C 29.070312 103.105469 27.488281 102.253906 25.953125 101.433594 C 25.625 101.253906 25.304688 101.082031 25 100.929688 C 17.066406 97 8.238281 91.414062 10.378906 83.0625 Z M 62.003906 48.359375 C 62.96875 47.71875 64.222656 47.5625 65.71875 47.894531 C 70.984375 49.054688 73.363281 48.066406 74.9375 47.410156 C 75.234375 47.285156 75.496094 47.175781 75.671875 47.117188 C 75.960938 47.132812 76.878906 47.710938 77.785156 48.945312 L 77.785156 49.039062 L 77.855469 49.039062 C 77.886719 49.085938 77.917969 49.125 77.953125 49.171875 C 78.574219 50.078125 79.597656 51.9375 79.460938 54.195312 C 79.234375 57.957031 77.847656 67.832031 76.972656 72.394531 C 76.757812 71.511719 76.5 70.632812 76.171875 69.761719 C 72.101562 58.996094 65.074219 53.417969 60.226562 50.703125 C 60.5 50 61.035156 48.996094 62.003906 48.359375 Z M 81.847656 53.230469 C 81.730469 51.375 81.078125 49.628906 80.191406 48.207031 L 80.191406 43.292969 C 80.960938 43.960938 82.34375 45.441406 84.597656 48.703125 L 85.804688 50.605469 C 85.867188 50.707031 85.863281 50.804688 85.851562 50.867188 C 85.835938 50.929688 85.796875 51.015625 85.699219 51.078125 C 84.722656 51.679688 83.339844 52.480469 81.847656 53.230469 Z M 74.339844 35.800781 C 74.613281 35.507812 75.109375 35.136719 76.234375 35.316406 C 81.648438 36.179688 89.882812 46.144531 92.679688 50.351562 C 92.664062 50.363281 92.644531 50.375 92.636719 50.378906 L 93.910156 52.414062 C 94.070312 52.316406 95.832031 51.277344 98.96875 51.035156 C 98.609375 54.609375 97.222656 62.867188 94.027344 66.386719 C 93.117188 67.390625 92.171875 67.898438 91.136719 67.941406 C 84.910156 68.214844 81.644531 68.664062 80.003906 68.996094 C 80.695312 64.675781 81.414062 59.28125 81.730469 55.957031 C 83.753906 55.027344 85.6875 53.90625 86.964844 53.121094 C 87.59375 52.734375 88.027344 52.125 88.195312 51.40625 C 88.359375 50.6875 88.230469 49.945312 87.835938 49.320312 L 86.601562 47.378906 C 82.136719 40.90625 80.339844 40.207031 79.183594 40.367188 C 78.425781 40.476562 77.988281 41.019531 77.84375 41.453125 L 77.785156 41.636719 L 77.785156 45.550781 C 76.820312 44.851562 75.902344 44.570312 75.121094 44.785156 C 74.773438 44.878906 74.414062 45.023438 74.011719 45.191406 C 73.953125 45.21875 73.882812 45.246094 73.820312 45.269531 C 73.203125 42.300781 72.832031 37.410156 74.339844 35.800781 Z M 135.144531 45.367188 C 135.964844 45.210938 136.984375 45.371094 137.460938 45.734375 C 137.664062 45.886719 137.675781 46.011719 137.679688 46.074219 C 138.585938 57.089844 133.609375 62.921875 130.316406 66.785156 C 128.804688 68.5625 127.605469 69.964844 127.394531 71.421875 L 127.386719 71.484375 C 122.683594 68.941406 116.378906 69.785156 112 70.378906 C 111.578125 70.433594 111.136719 70.511719 110.679688 70.589844 C 109.046875 70.875 107.359375 71.171875 106.160156 70.59375 C 104.710938 69.894531 104.015625 68.21875 104.03125 65.46875 C 104.066406 60.496094 105.296875 56.476562 107.183594 52.183594 C 110.179688 53.183594 113.632812 54.914062 117.5 57.792969 L 118.9375 55.863281 C 118.519531 55.554688 118.109375 55.261719 117.703125 54.976562 C 118.925781 53.691406 125.488281 47.21875 135.144531 45.367188 Z M 69.296875 95.15625 C 69.679688 94.824219 70.070312 94.507812 70.433594 94.148438 C 74.910156 89.773438 77.371094 84.179688 77.585938 78.4375 C 78.042969 81.066406 78.777344 83.003906 78.820312 83.117188 C 78.847656 83.207031 80.445312 88.121094 84.902344 92.523438 C 83.746094 93.921875 80.703125 98.066406 77.492188 106.265625 C 74.65625 100.816406 70.640625 96.515625 69.296875 95.15625 Z M 122.253906 89.492188 C 118.050781 94.324219 111.476562 96.84375 102.710938 96.96875 C 102.570312 96.972656 102.425781 96.976562 102.28125 96.976562 C 85.882812 96.976562 81.304688 83.003906 81.089844 82.328125 C 81.066406 82.265625 78.789062 76.269531 79.964844 71.457031 C 81.050781 71.195312 84.066406 70.65625 91.238281 70.34375 C 93.042969 70.265625 94.671875 69.375 96.082031 67.691406 C 99.628906 63.449219 101.035156 54.851562 101.378906 51.015625 C 102.429688 51.078125 103.585938 51.234375 104.84375 51.523438 C 102.914062 55.972656 101.664062 60.195312 101.628906 65.453125 C 101.605469 69.175781 102.777344 71.632812 105.117188 72.757812 C 107.011719 73.667969 109.179688 73.289062 111.09375 72.957031 C 111.519531 72.886719 111.929688 72.8125 112.320312 72.757812 C 117.082031 72.117188 123.523438 71.253906 127.488281 74.425781 C 127.425781 77.996094 126.636719 84.453125 122.253906 89.492188 Z M 122.125 93.019531 C 122.820312 92.40625 123.476562 91.753906 124.085938 91.050781 C 130.722656 83.398438 129.96875 73.242188 129.800781 71.640625 C 130 70.863281 131 69.691406 132.148438 68.34375 C 135.484375 64.433594 141.0625 57.886719 140.078125 45.875 C 140.011719 45.058594 139.609375 44.347656 138.917969 43.820312 C 137.738281 42.925781 135.949219 42.769531 134.6875 43.007812 C 123.210938 45.207031 115.976562 53.285156 115.675781 53.628906 L 115.691406 53.644531 C 105.6875 47.375 98.394531 48.28125 94.914062 49.394531 C 92.65625 46.023438 83.605469 34.058594 76.613281 32.941406 C 74.542969 32.613281 73.273438 33.421875 72.582031 34.160156 C 69.820312 37.109375 71.148438 44.285156 71.5 45.925781 C 70.269531 46.101562 68.628906 46.074219 66.238281 45.546875 C 64.082031 45.074219 62.210938 45.339844 60.679688 46.351562 C 59.292969 47.265625 58.515625 48.589844 58.082031 49.605469 C 57.1875 49.191406 56.425781 48.890625 55.886719 48.699219 C 52.558594 47.527344 49.675781 47.351562 48.171875 48.234375 C 44.570312 50.355469 38.78125 52.605469 35.160156 52.605469 C 31.273438 52.605469 29.421875 56.023438 28.914062 58.042969 C 28.257812 57.917969 27.578125 57.875 26.847656 57.972656 C 23.992188 58.355469 21.515625 60.453125 19.269531 64.378906 C 18.496094 65.738281 17.792969 67.25 17.121094 69 C 16.902344 69.578125 16.769531 70.164062 16.644531 70.730469 C 16.488281 71.433594 16.339844 72.097656 16.042969 72.601562 C 15.976562 72.71875 15.894531 72.832031 15.808594 72.933594 C 15.402344 73.414062 14.804688 73.816406 14.171875 74.238281 C 13.933594 74.398438 13.695312 74.558594 13.464844 74.722656 C 10.753906 76.667969 8.828125 79.417969 8.046875 82.46875 C 5.148438 93.773438 18.792969 100.539062 23.929688 103.085938 C 24.214844 103.222656 24.511719 103.382812 24.816406 103.546875 C 25.085938 103.691406 25.371094 103.84375 25.667969 103.996094 C 24.730469 106.367188 21.507812 115.6875 24.988281 123.808594 C 27 128.496094 30.875 131.902344 36.507812 133.929688 L 36.679688 133.976562 C 36.726562 133.984375 37.140625 134.0625 37.765625 134.0625 C 38.867188 134.0625 40.632812 133.820312 42.210938 132.523438 C 44.058594 131.007812 45.109375 128.523438 45.351562 125.132812 C 45.855469 125.261719 46.359375 125.378906 46.871094 125.460938 C 47.691406 125.597656 48.539062 125.667969 49.410156 125.667969 C 51.359375 125.667969 53.398438 125.324219 55.425781 124.644531 C 56.554688 124.269531 57.691406 123.851562 58.746094 123.335938 C 59.164062 125.441406 59.488281 127.507812 59.429688 127.96875 C 59.003906 129.664062 62.332031 131.539062 64.210938 132.167969 C 65.046875 132.445312 66.234375 132.730469 67.621094 132.730469 C 70.230469 132.730469 73.539062 131.726562 76.5 127.804688 C 77.238281 128.734375 78.308594 129.683594 79.453125 130.609375 L 79.632812 130.753906 C 81.792969 132.523438 84.078125 133.414062 86.445312 133.414062 C 86.757812 133.414062 87.066406 133.398438 87.382812 133.367188 C 90.652344 133.046875 93.296875 131.355469 94.636719 128.726562 C 95.582031 126.871094 95.765625 124.714844 95.246094 122.605469 C 97.40625 123.179688 100.003906 123.601562 103.003906 123.601562 C 105.65625 123.601562 108.628906 123.261719 111.871094 122.425781 C 112.820312 125.207031 115.253906 130.453125 120.304688 131.421875 C 120.769531 131.511719 121.230469 131.546875 121.695312 131.546875 C 122.632812 131.546875 123.570312 131.394531 124.523438 131.21875 C 125.78125 130.980469 126.914062 130.738281 127.988281 130.128906 C 136.382812 125.375 131.652344 111.53125 129.226562 105.796875 C 127.324219 101.300781 124.925781 97.019531 122.125 93.019531 Z M 105.367188 82.578125 L 107.101562 84.246094 C 106.992188 84.359375 104.699219 86.707031 102.015625 86.707031 C 101.585938 86.707031 101.148438 86.644531 100.707031 86.507812 C 99.082031 86 97.847656 84.609375 96.953125 82.328125 C 96.226562 83.9375 95.191406 85.339844 93.6875 85.921875 C 93.1875 86.117188 92.671875 86.210938 92.132812 86.210938 C 90.351562 86.210938 88.363281 85.144531 86.203125 83.019531 L 87.886719 81.304688 C 89.3125 82.707031 91.324219 84.257812 92.8125 83.683594 C 94.46875 83.039062 95.386719 80.105469 95.839844 77.664062 C 94.25 76.964844 93.234375 74.398438 93.070312 71.964844 C 92.851562 68.691406 101.578125 70.074219 101.066406 72.113281 C 100.921875 72.675781 100.410156 75.855469 98.351562 77.269531 C 98.324219 77.460938 98.292969 77.652344 98.257812 77.859375 C 98.882812 81.507812 100 83.769531 101.421875 84.210938 C 102.917969 84.679688 104.816406 83.152344 105.367188 82.578125 Z M 51.53125 79.957031 C 51.476562 79.761719 51.421875 79.570312 51.375 79.386719 C 49.175781 78.203125 48.320312 75.101562 48.117188 74.558594 C 47.386719 72.585938 55.910156 70.261719 56.050781 73.542969 C 56.152344 75.984375 55.417969 78.648438 53.910156 79.511719 C 54.679688 82.066406 55.957031 84.726562 57.578125 85.160156 C 59.121094 85.578125 60.949219 83.808594 62.214844 82.261719 L 64.078125 83.785156 C 61.992188 86.339844 59.96875 87.628906 58.054688 87.628906 C 57.683594 87.628906 57.316406 87.582031 56.953125 87.480469 C 55.398438 87.0625 54.210938 85.785156 53.3125 84.261719 C 52.675781 86.628906 51.597656 88.148438 50.039062 88.828125 C 49.441406 89.085938 48.835938 89.191406 48.238281 89.191406 C 45.769531 89.191406 43.550781 87.367188 43.4375 87.273438 L 44.976562 85.425781 C 45.632812 85.96875 47.660156 87.246094 49.082031 86.621094 C 50.445312 86.023438 51.3125 83.652344 51.53125 79.957031 Z M 122.945312 58.015625 C 123.058594 57.914062 123.164062 57.820312 123.246094 57.742188 C 124.699219 56.347656 126.621094 55.105469 128.949219 54.058594 C 129.109375 53.988281 129.320312 53.878906 129.5625 53.75 C 129.90625 53.566406 130.855469 53.0625 131.355469 52.972656 C 131.351562 53.082031 131.335938 53.210938 131.328125 53.273438 C 130.921875 56.445312 128.761719 59.21875 127.175781 61.027344 L 127.023438 61.203125 C 126.675781 61.597656 126.320312 62.007812 125.953125 62.371094 C 125.878906 62.277344 125.800781 62.179688 125.710938 62.078125 L 122.863281 58.792969 C 122.75 58.667969 122.640625 58.550781 122.535156 58.445312 C 122.527344 58.433594 122.519531 58.425781 122.511719 58.414062 C 122.652344 58.273438 122.835938 58.113281 122.945312 58.015625 Z M 121.042969 60.367188 L 123.894531 63.652344 C 124.011719 63.789062 124.113281 63.921875 124.199219 64.035156 C 124.535156 64.46875 124.949219 65.007812 125.710938 65.070312 C 125.757812 65.074219 125.800781 65.078125 125.847656 65.078125 C 126.5 65.078125 127.003906 64.679688 127.339844 64.371094 C 127.886719 63.867188 128.367188 63.316406 128.835938 62.785156 L 128.984375 62.613281 C 130.78125 60.566406 133.226562 57.402344 133.714844 53.574219 C 133.765625 53.167969 133.808594 52.691406 133.660156 52.171875 C 133.46875 51.5 133.039062 50.992188 132.449219 50.738281 C 131.140625 50.183594 129.574219 51.019531 128.433594 51.628906 C 128.246094 51.726562 128.085938 51.8125 127.960938 51.867188 C 125.378906 53.027344 123.234375 54.421875 121.578125 56.011719 C 121.515625 56.070312 121.4375 56.136719 121.351562 56.214844 C 120.863281 56.644531 120.257812 57.183594 120.054688 57.863281 C 119.988281 58.097656 119.960938 58.332031 119.976562 58.5625 C 120.023438 59.304688 120.476562 59.773438 120.808594 60.113281 C 120.882812 60.191406 120.964844 60.273438 121.042969 60.367188 " fill-opacity="1" fill-rule="nonzero"/></g></svg>